<svg version="1.1" width="1280" height="940" style="overflow: hidden;"><defs></defs><g id="two-0" transform="matrix(1 0 0 1 0 0)" opacity="1"><path transform="matrix(1 0 0 1 640 470)" d="M 8 0 C 8 4.418 4.418 8 0 8 C -4.419 8 -8 4.418 -8 0 C -8 -4.419 -4.419 -8 -0.001 -8 C 4.418 -8.001 7.999 -4.419 8 -0.001 C 8 -0.001 8 0 8 0 Z " fill="transparent" stroke="#b78846" stroke-width="1" stroke-opacity="1" fill-opacity="1" class="" visibility="visible" stroke-linecap="butt" stroke-linejoin="miter" stroke-miterlimit="4" id="two-1"></path><path transform="matrix(1 0 0 1 1596 -451)" d="M -956 921 L 45 921 L 45 1836 L 556 1836 L 556 2172 L -91 2172 L -91 3016 L 6 3016 L 6 3595 L -330 3595 L -330 3059 L -975 3059 L -975 3507 L -60 3507 L -60 3980 L -802 3980 L -802 4450 L -572 4450 L -572 5008 L -358 5008 L -358 5471 L -732 5471 L -732 5921 L -664 5921 L -664 5296 L -1601 5296 L -1601 5431 L -2461 5431 L -2461 5025 L -2987 5025 L -2987 4470 L -2145 4470 L -2145 5458 L -1326 5458 L -1326 4463 L -741 4463 L -741 4245 L -1257 4245 L -1257 5001 L -1695 5001 L -1695 4080 L -1551 4080 L -1551 4142 L -1313 4142 L -1313 3998 L -1027 3998 L -1027 3064 L -1709 3064 L -1709 3051 L -1996 3051 L -1996 3639 L -2876 3639 L -2876 3009 L -3758 3009 L -3758 3901 L -3199 3901 L -3199 4597 L -3528 4597 L -3528 5469 L -4474 5469 L -4474 5250 L -3881 5250 L -3881 4714 L -3479 4714 L -3479 3768 L -4345 3768 L -4345 3078 L -4686 3078 L -4686 2349 L -4602 2349 L -4602 1352 L -5181 1352 L -5181 1961 L -4774 1961 L -4774 2807 L -4549 2807 L -4549 1854 L -3959 1854 L -3959 1775 L -3369 1775 L -3369 1050 L -4259 1050 L -4259 1434 L -4701 1434 L -4701 1798 L -4101 1798 L -4101 1912 L -4062 1912 L -4062 2874 L -3649 2874 L -3649 2176 L -2887 2176 L -2887 1656 L -3067 1656 L -3067 2213 L -3032 2213 L -3032 1311 L -3508 1311 L -3508 1216 L -2678 1216 L -2678 358 L -2990 358 L -2990 -521 L -3075 -521 L -3075 -1141 L -2570 -1141 L -2570 -1389 L -2911 -1389 L -2911 -1470 L -3234 -1470 L -3234 -1766 L -3287 -1766 L -3287 -2298 L -2324 -2298 L -2324 -2268 L -2704 -2268 L -2704 -2208 L -3294 -2208 L -3294 -2907 L -2327 -2907 L -2327 -2995 L -3052 -2995 L -3052 -2265 L -2346 -2265 L -2346 -1928 L -2594 -1928 L -2594 -1882 L -2463 -1882 L -2463 -2423 L -2776 -2423 L -2776 -2931 L -2656 -2931 L -2656 -2212 L -2628 -2212 L -2628 -2554 L -2073 -2554 L -2073 -3334 L -1676 -3334 L -1676 -2811 L -2295 -2811 L -2295 -1991 L -1430 -1991 L -1430 -1987 L -2220 -1987 L -2220 -1443 L -3093 -1443 L -3093 -1194 L -3313 -1194 L -3313 -1537 L -2495 -1537 L -2495 -2340 L -2186 -2340 L -2186 -1764 L -1375 -1764 L -1375 -1047 L -2175 -1047 L -2175 -876 L -1652 -876 L -1652 -1506 L -2506 -1506 L -2506 -1771 L -2299 -1771 L -2299 -1918 L -1781 -1918 L -1781 -2155 L -959 -2155 L -959 -1483 L -1099 -1483 L -1099 -2063 L -691 -2063 L -691 -1324 L -1210 -1324 L -1210 -2083 L -546 -2083 L -546 -2022 L -288 -2022 L -288 -1709 L 184 -1709 L 184 -2146 L 1159 -2146 L 1159 -2974 L 1105 -2974 L 1105 -2082 L 735 -2082 L 735 -2591 L 655 -2591 L 655 -3184 L 387 -3184 L 387 -4040 L 210 -4040 L 210 -4990 L -56 -4990 L -56 -5019 L 437 -5019 L 437 -4791 L 327 -4791 L 327 -5181 L 235 -5181 L 235 -5189 L -53 -5189 L -53 -5921 L 406 -5921 L 406 -5499 L 693 -5499 L 693 -5140 L 1608 -5140 L 1608 -5435 L 2567 -5435 L 2567 -5650 L 2649 -5650 L 2649 -5293 L 1679 -5293 L 1679 -4511 L 1026 -4511 L 1026 -4910 L 976 -4910 L 976 -4190 L 1764 -4190 L 1764 -3794 L 1202 -3794 L 1202 -3234 L 2000 -3234 L 2000 -3038 L 2079 -3038 L 2079 -2306 L 2411 -2306 L 2411 -1349 L 2305 -1349 L 2305 -1150 L 3061 -1150 L 3061 -1529 L 3777 -1529 L 3777 -1811 L 4589 -1811 L 4589 -2157 L 5181 -2157 L 5181 -1741 L 4727 -1741 L 4727 -2353 L 4567 -2353 L 4567 -3237 L 4940 -3237 L 4940 -3543 L 4995 -3543 L 4995 -3051 L 5170 -3051 L 5170 -2818 L 4921 -2818 L 4921 -2202 L 4579 -2202 L 4579 -1552 L 4398 -1552 L 4398 -2420 L 3637 -2420 L 3637 -2250 L 2661 -2250 L 2661 -2961 L 3038 -2961 L 3038 -2848 L 2490 -2848 L 2490 -2887 L 2552 -2887 L 2552 -2788 L 3405 -2788 L 3405 -3037 L 2454 -3037 L 2454 -3654 L 2711 -3654 L 2711 -4111 L 3141 -4111 L 3141 -3756 L 2600 -3756 L 2600 -4351 L 2424 -4351 L 2424 -3364 L 2789 -3364 L 2789 -3287 L 2608 -3287 L 2608 -3095 L 1920 -3095 L 1920 -2153 L 2537 -2153 L 2537 -2637 L 2784 -2637 L 2784 -2817 L 3555 -2817 L 3555 -2425 L 3739 -2425 L 3739 -3022 L 3057 -3022 L 3057 -3476 L 3913 -3476 L 3913 -4092 L 4087 -4092 L 4087 -4721 L 3480 -4721 L 3480 -4762 L 2510 -4762 L 2510 -4160 L 2912 -4160 L 2912 -3952 L 3738 -3952 " fill="transparent" stroke="#673ab7" stroke-width="4" stroke-opacity="1" fill-opacity="1" class="" visibility="visible" stroke-linecap="butt" stroke-linejoin="miter" stroke-miterlimit="4" id="two-2"></path><path transform="matrix(1 0 0 1 2874 -3614.5)" d="M -2234 4084.5 L -3228 4084.5 L -3228 3846.5 L -2623 3846.5 L -2623 3613.5 L -3132 3613.5 L -3132 3532.5 L -2225 3532.5 L -2225 2652.5 L -1559 2652.5 L -1559 2738.5 L -1553 2738.5 L -1553 2489.5 L -1208 2489.5 L -1208 2981.5 L -2120 2981.5 L -2120 2211.5 L -2947 2211.5 L -2947 2318.5 L -1959 2318.5 L -1959 2843.5 L -2430 2843.5 L -2430 2137.5 L -2399 2137.5 L -2399 1652.5 L -1564 1652.5 L -1564 2430.5 L -1145 2430.5 L -1145 2891.5 L -2082 2891.5 L -2082 3631.5 L -1523 3631.5 L -1523 3322.5 L -1902 3322.5 L -1902 2937.5 L -1074 2937.5 L -1074 3635.5 L -798 3635.5 L -798 2721.5 L -1709 2721.5 L -1709 1752.5 L -1427 1752.5 L -1427 2117.5 L -1470 2117.5 L -1470 3028.5 L -1214 3028.5 L -1214 3620.5 L -1665 3620.5 L -1665 3458.5 L -2494 3458.5 L -2494 4022.5 L -2145 4022.5 L -2145 3743.5 L -2126 3743.5 L -2126 3853.5 L -1867 3853.5 L -1867 4404.5 L -2039 4404.5 L -2039 5303.5 L -2963 5303.5 L -2963 6122.5 L -2431 6122.5 L -2431 5385.5 L -3225 5385.5 L -3225 4390.5 L -3057 4390.5 L -3057 4749.5 L -2210 4749.5 L -2210 4323.5 L -1986 4323.5 L -1986 3339.5 L -2915 3339.5 L -2915 3870.5 L -3712 3870.5 L -3712 3578.5 L -4044 3578.5 L -4044 3858.5 L -3727 3858.5 L -3727 4506.5 L -2951 4506.5 L -2951 4558.5 L -2035 4558.5 L -2035 4195.5 L -1116 4195.5 L -1116 3305.5 L -533 3305.5 L -533 2344.5 L -622 2344.5 L -622 3024.5 L -1516 3024.5 L -1516 3250.5 L -1599 3250.5 L -1599 3182.5 L -1048 3182.5 L -1048 2769.5 L -789 2769.5 L -789 3237.5 L -1491 3237.5 L -1491 2784.5 L -1619 2784.5 L -1619 1798.5 L -1381 1798.5 L -1381 993.5 L -950 993.5 L -950 447.5 L -6 447.5 L -6 589.5 L 671 589.5 L 671 1372.5 L 1007 1372.5 L 1007 1592.5 L 1047 1592.5 L 1047 1201.5 L 1052 1201.5 L 1052 1961.5 L 89 1961.5 L 89 2725.5 L 742 2725.5 L 742 1793.5 L 1215 1793.5 L 1215 1482.5 L 1026 1482.5 L 1026 2365.5 L 1242 2365.5 L 1242 1974.5 L 608 1974.5 L 608 1699.5 L -83 1699.5 L -83 724.5 L 47 724.5 L 47 1267.5 L -116 1267.5 L -116 531.5 L 848 531.5 L 848 -197.5 L 1600 -197.5 L 1600 333.5 L 1690 333.5 L 1690 804.5 L 2377 804.5 L 2377 1145.5 L 2818 1145.5 L 2818 583.5 L 3388 583.5 L 3388 305.5 L 3958 305.5 L 3958 128.5 L 3726 128.5 L 3726 -652.5 L 2852 -652.5 L 2852 -910.5 L 3032 -910.5 L 3032 -882.5 L 3948 -882.5 L 3948 -487.5 L 4044 -487.5 L 4044 -1441.5 L 3822 -1441.5 L 3822 -2019.5 L 3428 -2019.5 L 3428 -2794.5 L 2577 -2794.5 L 2577 -2776.5 L 1896 -2776.5 L 1896 -1864.5 L 1135 -1864.5 L 1135 -2809.5 L 269 -2809.5 L 269 -2797.5 L 689 -2797.5 L 689 -2629.5 L 1179 -2629.5 L 1179 -3308.5 L 1700 -3308.5 L 1700 -3217.5 L 918 -3217.5 L 918 -3800.5 L 95 -3800.5 L 95 -4456.5 L -270 -4456.5 L -270 -3939.5 L 49 -3939.5 L 49 -4664.5 L -775 -4664.5 L -775 -4133.5 L -1522 -4133.5 L -1522 -4955.5 L -629 -4955.5 L -629 -4793.5 L -640 -4793.5 L -640 -3880.5 L -935 -3880.5 L -935 -3815.5 L -1328 -3815.5 L -1328 -3464.5 L -1760 -3464.5 L -1760 -4292.5 L -1891 -4292.5 L -1891 -3908.5 L -1580 -3908.5 L -1580 -4289.5 L -1606 -4289.5 L -1606 -3654.5 L -1786 -3654.5 L -1786 -3259.5 L -2362 -3259.5 L -2362 -2423.5 L -1814 -2423.5 L -1814 -1603.5 L -2033 -1603.5 L -2033 -2352.5 L -2097 -2352.5 L -2097 -2350.5 L -3089 -2350.5 L -3089 -2454.5 L -3590 -2454.5 L -3590 -2701.5 L -2897 -2701.5 L -2897 -1839.5 L -2881 -1839.5 L -2881 -2185.5 L -2549 -2185.5 L -2549 -2803.5 L -2162 -2803.5 L -2162 -2807.5 L -2368 -2807.5 L -2368 -3750.5 L -1634 -3750.5 L -1634 -3586.5 L -863 -3586.5 L -863 -3603.5 L -1374 -3603.5 L -1374 -3128.5 L -1449 -3128.5 L -1449 -4093.5 L -1333 -4093.5 L -1333 -3466.5 L -1090 -3466.5 L -1090 -3389.5 L -325 -3389.5 L -325 -2558.5 L -376 -2558.5 L -376 -3437.5 L -169 -3437.5 L -169 -2937.5 L 120 -2937.5 L 120 -3686.5 L 326 -3686.5 L 326 -2836.5 L 1158 -2836.5 L 1158 -3243.5 L 173 -3243.5 L 173 -3757.5 L 463 -3757.5 L 463 -4374.5 L -234 -4374.5 L -234 -5186.5 L -867 -5186.5 L -867 -6122.5 L -653 -6122.5 L -653 -5675.5 L -144 -5675.5 L -144 -5090.5 L 643 -5090.5 L 643 -4590.5 L 948 -4590.5 L 948 -3992.5 L 1814 -3992.5 L 1814 -4773.5 L 1043 -4773.5 L 1043 -4423.5 L 1601 -4423.5 L 1601 -5092.5 L 1885 -5092.5 L 1885 -4406.5 L 1654 -4406.5 L 1654 -4980.5 L 1115 -4980.5 L 1115 -4643.5 L 980 -4643.5 L 980 -3892.5 L 1295 -3892.5 L 1295 -3548.5 L 601 -3548.5 L 601 -2601.5 L 719 -2601.5 L 719 -2978.5 L 769 -2978.5 L 769 -3159.5 L 673 -3159.5 L 673 -4063.5 L -103 -4063.5 L -103 -3795.5 L -386 -3795.5 L -386 -4028.5 L -1143 -4028.5 L -1143 -4564.5 L -1304 -4564.5 L -1304 -3683.5 L -580 -3683.5 L -580 -3111.5 L -258 -3111.5 " fill="transparent" stroke="#faec43" stroke-width="4" stroke-opacity="1" fill-opacity="1" class="" visibility="visible" stroke-linecap="butt" stroke-linejoin="miter" stroke-miterlimit="4" id="two-3"></path></g></svg>